<svg xmlns="http://www.w3.org/2000/svg" viewBox="0 0 820 560" role="img" aria-labelledby="title desc"><title id="title">Continuidad del aprendizaje</title><desc id="desc">Ilustración editorial rosa y perla que conecta objetivo, práctica y continuidad en un recorrido visual.</desc><defs><linearGradient id="bg" x1="0" y1="0" x2="1" y2="1"><stop stop-color="#fffdfd"/><stop offset="1" stop-color="#f3dbe5"/></linearGradient><linearGradient id="accent" x1="0" y1="0" x2="1" y2="1"><stop stop-color="#ee87b3"/><stop offset="1" stop-color="#bd216b"/></linearGradient><filter id="s"><feDropShadow dx="0" dy="20" stdDeviation="18" flood-color="#78294d" flood-opacity=".12"/></filter></defs><rect width="820" height="560" rx="44" fill="url(#bg)"/><circle cx="690" cy="92" r="116" fill="#fff" opacity=".5"/><circle cx="112" cy="466" r="104" fill="#f5c7d9" opacity=".34"/><path d="M120 306c95-108 191-143 286-104 95 39 141 153 280 132" fill="none" stroke="#d8719a" stroke-width="4" stroke-dasharray="10 14" opacity=".7"/><g transform="translate(92 86)" filter="url(#s)"><rect width="190" height="150" rx="30" fill="#fff"/><circle cx="52" cy="50" r="24" fill="#d92379"/><path d="M52 38v24M40 50h24" stroke="#fff" stroke-width="5" stroke-linecap="round"/><path d="M94 38h58M94 61h42" stroke="#c889a2" stroke-width="9" stroke-linecap="round"/><rect x="30" y="96" width="130" height="12" rx="6" fill="#ead3dc"/><rect x="30" y="119" width="94" height="12" rx="6" fill="#f0dfe6"/></g><g transform="translate(314 202)" filter="url(#s)"><rect width="198" height="168" rx="34" fill="url(#accent)"/><circle cx="99" cy="66" r="38" fill="#fff" opacity=".18"/><path d="M72 71c8 11 17 17 27 17s19-6 27-17" fill="none" stroke="#fff" stroke-width="7" stroke-linecap="round"/><path d="M54 121h90M72 143h54" stroke="#fff" stroke-width="10" stroke-linecap="round" opacity=".82"/></g><g transform="translate(562 316)" filter="url(#s)"><rect width="174" height="146" rx="30" fill="#fff"/><circle cx="48" cy="50" r="24" fill="#f1bed2"/><path d="m38 50 7 7 13-18" fill="none" stroke="#a51f5d" stroke-width="5" stroke-linecap="round" stroke-linejoin="round"/><path d="M90 41h50M90 63h34" stroke="#c889a2" stroke-width="9" stroke-linecap="round"/><path d="M32 105h108" stroke="#ead5df" stroke-width="12" stroke-linecap="round"/><path d="M32 105h76" stroke="#d92379" stroke-width="12" stroke-linecap="round"/></g><g transform="translate(126 360)"><circle cx="20" cy="20" r="20" fill="#fff" stroke="#d76492" stroke-width="3"/><path d="m12 20 6 6 11-15" fill="none" stroke="#d76492" stroke-width="4" stroke-linecap="round" stroke-linejoin="round"/><path d="M56 20h142" stroke="#d9a6bb" stroke-width="8" stroke-linecap="round"/><circle cx="222" cy="20" r="20" fill="#fff" stroke="#d76492" stroke-width="3"/><path d="m214 20 6 6 11-15" fill="none" stroke="#d76492" stroke-width="4" stroke-linecap="round" stroke-linejoin="round"/></g><path d="M642 112l18-14 18 14-18 14z" fill="#d92379" opacity=".84"/></svg>