<svg xmlns="http://www.w3.org/2000/svg" viewBox="0 0 1100 760" role="img" aria-labelledby="t d"><title id="t">Language School Journal</title><desc id="d">Ilustración editorial con cuaderno, café, auriculares, palabras en inglés y un avión rosa.</desc><defs><linearGradient id="b" x1="0" y1="0" x2="1" y2="1"><stop stop-color="#fffafc"/><stop offset="1" stop-color="#f2d4e3"/></linearGradient><linearGradient id="p" x1="0" y1="0" x2="1" y2="1"><stop stop-color="#ef5a9c"/><stop offset="1" stop-color="#a81460"/></linearGradient><filter id="s"><feDropShadow dx="0" dy="22" stdDeviation="22" flood-color="#812751" flood-opacity=".13"/></filter></defs><rect width="1100" height="760" rx="52" fill="url(#b)"/><circle cx="900" cy="110" r="230" fill="#fff" opacity=".52"/><path d="M80 625C230 520 355 540 510 622s295 77 500-42" fill="none" stroke="#c51d6e" stroke-width="4" stroke-dasharray="10 15" opacity=".28"/><g filter="url(#s)"><rect x="150" y="140" width="520" height="430" rx="38" fill="#fff" transform="rotate(-4 410 355)"/><rect x="610" y="215" width="300" height="250" rx="34" fill="#fff" opacity=".96"/></g><g transform="translate(230 220) rotate(-4)"><path d="M0 0h360v270H0z" fill="#fffafc"/><path d="M40 68h260M40 108h220M40 148h275M40 188h190" stroke="#df7aaa" stroke-width="7" stroke-linecap="round" opacity=".48"/><text x="40" y="48" font-family="Georgia,serif" font-size="34" font-weight="700" fill="#352c31">Do you speak English?</text><circle cx="310" cy="218" r="28" fill="url(#p)"/><path d="M298 218h24M310 206v24" stroke="#fff" stroke-width="5" stroke-linecap="round"/></g><g transform="translate(690 270)"><circle cx="70" cy="70" r="58" fill="#f5d3e2"/><path d="M30 70c0-28 18-48 40-48s40 20 40 48" fill="none" stroke="#c51d6e" stroke-width="12" stroke-linecap="round"/><rect x="19" y="68" width="20" height="48" rx="10" fill="#c51d6e"/><rect x="101" y="68" width="20" height="48" rx="10" fill="#c51d6e"/></g><g transform="translate(820 95) rotate(-15)" fill="none" stroke="#b91a68" stroke-width="11" stroke-linecap="round" stroke-linejoin="round"><path d="M0 28l75-18-29 27 13 34-20 6-19-28-32 9z"/><path d="M20 47l-44 42"/></g><g fill="#8c2052" font-family="Arial,sans-serif" font-size="17" font-weight="700"><text x="165" y="655">SPEAKING</text><text x="400" y="655">EXAMS</text><text x="610" y="655">VOCABULARY</text><text x="855" y="655">LISTENING</text></g></svg>