<svg xmlns="http://www.w3.org/2000/svg" viewBox="0 0 1100 760" role="img" aria-labelledby="t d"><title id="t">Conversación con Language School</title><desc id="d">Ilustración editorial de una profesora conversando con una estudiante y planificando su siguiente paso.</desc><defs><linearGradient id="b" x1="0" y1="0" x2="1" y2="1"><stop stop-color="#fffafc"/><stop offset="1" stop-color="#f2d2e2"/></linearGradient><linearGradient id="p" x1="0" y1="0" x2="1" y2="1"><stop stop-color="#ef5a9c"/><stop offset="1" stop-color="#a81460"/></linearGradient><filter id="s"><feDropShadow dx="0" dy="22" stdDeviation="22" flood-color="#812751" flood-opacity=".13"/></filter></defs><rect width="1100" height="760" rx="52" fill="url(#b)"/><circle cx="930" cy="110" r="240" fill="#fff" opacity=".54"/><path d="M85 610C240 500 365 520 505 604s288 84 500-35" fill="none" stroke="#c51d6e" stroke-width="4" stroke-dasharray="10 15" opacity=".3"/><g filter="url(#s)"><rect x="155" y="130" width="770" height="450" rx="40" fill="#fff" opacity=".95"/></g><g transform="translate(245 190)"><circle cx="120" cy="105" r="68" fill="#efb892"/><path d="M58 97c8-75 120-86 128-4-29-37-94-36-128 4z" fill="#6a413d"/><path d="M58 180c28-28 95-34 125 0l40 142H18z" fill="url(#p)"/><circle cx="96" cy="110" r="5" fill="#352b2e"/><circle cx="144" cy="110" r="5" fill="#352b2e"/><path d="M101 137c12 11 25 11 37 0" fill="none" stroke="#9a564d" stroke-width="5" stroke-linecap="round"/></g><g transform="translate(545 210)"><circle cx="112" cy="100" r="63" fill="#dca17c"/><path d="M53 92c6-68 112-79 122-5-27-32-89-32-122 5z" fill="#302a2d"/><path d="M53 168c28-24 91-28 119 0l37 126H18z" fill="#ddd0c8"/><circle cx="90" cy="104" r="4.5" fill="#2d2628"/><circle cx="134" cy="104" r="4.5" fill="#2d2628"/><path d="M96 129c10 9 22 9 32 0" fill="none" stroke="#8b4e45" stroke-width="4.5" stroke-linecap="round"/></g><g transform="translate(430 458)"><rect x="0" y="0" width="300" height="70" rx="18" fill="#fff4f8" stroke="#d8317d" stroke-opacity=".18"/><path d="M30 24h36M30 40h62M125 22h145M125 42h105" stroke="#d8317d" stroke-width="5" stroke-linecap="round" opacity=".55"/></g><g transform="translate(812 130)" fill="none" stroke="#b81a67" stroke-width="8" stroke-linecap="round"><path d="M0 25c0-14 11-25 25-25h82c14 0 25 11 25 25v45c0 14-11 25-25 25H63L35 119V95H25C11 95 0 84 0 70z"/><path d="M28 35h74M28 56h50"/></g><g transform="translate(850 490) rotate(-18)" fill="none" stroke="#be1b69" stroke-width="11" stroke-linecap="round" stroke-linejoin="round"><path d="M0 28l75-18-29 27 13 34-20 6-19-28-32 9z"/><path d="M20 47l-44 42"/></g><g fill="#8c2052" font-family="Arial,sans-serif" font-size="16" font-weight="700"><text x="190" y="650">ESCUCHAMOS</text><text x="480" y="650">ORIENTAMOS</text><text x="770" y="650">EMPEZAMOS</text></g></svg>