<svg xmlns="http://www.w3.org/2000/svg" viewBox="0 0 800 520"><defs><linearGradient id="b" x1="0" y1="0" x2="1" y2="1"><stop stop-color="#fff8fa"/><stop offset="1" stop-color="#f0d5df"/></linearGradient><filter id="s"><feDropShadow dx="0" dy="18" stdDeviation="18" flood-color="#7b294d" flood-opacity=".12"/></filter></defs><rect width="800" height="520" rx="44" fill="url(#b)"/><circle cx="640" cy="90" r="150" fill="#fff" opacity=".55"/><path d="M95 350c95-125 206-181 340-142 70 20 125 66 196 44" fill="none" stroke="#cf3f77" stroke-width="8" stroke-linecap="round" stroke-dasharray="15 18"/><g filter="url(#s)"><rect x="140" y="100" width="260" height="180" rx="32" fill="#fff"/><path d="M210 280l-35 52 76-44" fill="#fff"/><circle cx="220" cy="188" r="15" fill="#e987a8"/><circle cx="270" cy="188" r="15" fill="#d75a86"/><circle cx="320" cy="188" r="15" fill="#bc2f68"/></g><g filter="url(#s)"><rect x="470" y="250" width="190" height="130" rx="28" fill="#b92b67"/><path d="M605 380l34 41-69-31" fill="#b92b67"/><path d="M510 305h110M510 335h82" stroke="#fff" stroke-width="12" stroke-linecap="round" opacity=".92"/></g><text x="92" y="74" fill="#aa2a61" font-family="Georgia,serif" font-size="34" font-style="italic">Speak with confidence</text></svg>