<svg xmlns="http://www.w3.org/2000/svg" viewBox="0 0 800 520"><defs><linearGradient id="b" x1="0" y1="0" x2="1" y2="1"><stop stop-color="#fff9f7"/><stop offset="1" stop-color="#f1dee5"/></linearGradient><filter id="s"><feDropShadow dx="0" dy="17" stdDeviation="17" flood-color="#6c304e" flood-opacity=".12"/></filter></defs><rect width="800" height="520" rx="44" fill="url(#b)"/><circle cx="650" cy="120" r="145" fill="#fff" opacity=".55"/><g filter="url(#s)" transform="translate(150 110)"><circle cx="150" cy="120" r="90" fill="#fff"/><circle cx="150" cy="90" r="34" fill="#e59ab4"/><path d="M92 190c15-45 46-68 58-68s43 23 58 68" fill="#d95e88"/><circle cx="350" cy="135" r="110" fill="#fff"/><circle cx="350" cy="92" r="40" fill="#c33b70"/><path d="M276 225c18-57 55-84 74-84s56 27 74 84" fill="#b82d65"/></g><path d="M300 300c65 42 135 50 210 12" fill="none" stroke="#d15381" stroke-width="7" stroke-linecap="round" stroke-dasharray="14 17"/><g filter="url(#s)" transform="translate(535 270)"><rect width="150" height="115" rx="24" fill="#fff"/><path d="M34 50h82M34 78h55" stroke="#d58aa5" stroke-width="10" stroke-linecap="round"/></g><text x="92" y="72" fill="#9f2c59" font-family="Georgia,serif" font-size="33" font-style="italic">Learn together</text></svg>