<svg xmlns="http://www.w3.org/2000/svg" viewBox="0 0 1200 720"><defs><linearGradient id="g" x1="0" y1="0" x2="1" y2="1"><stop stop-color="#fff"/><stop offset="1" stop-color="#f2dbe4"/></linearGradient><filter id="s"><feDropShadow dx="0" dy="18" stdDeviation="24" flood-color="#6b2946" flood-opacity=".12"/></filter></defs><rect width="1200" height="720" fill="url(#g)"/><circle cx="1040" cy="580" r="220" fill="#edabc5" opacity=".18"/><g filter="url(#s)" transform="translate(105 95)"><rect width="990" height="530" rx="58" fill="#fff"/><rect x="54" y="54" width="882" height="422" rx="38" fill="#fff9f7"/><g transform="translate(170 95)"><circle cx="165" cy="115" r="68" fill="#efc3a6"/><path d="M92 315c12-113 42-158 73-158s61 45 74 158" fill="#8a5f7b"/><path d="M95 87c20-48 48-69 83-65 37 4 61 35 63 77-53-19-95-23-146-12Z" fill="#47383b"/><circle cx="147" cy="114" r="5" fill="#49313b"/><circle cx="183" cy="114" r="5" fill="#49313b"/><path d="M150 142c14 9 28 9 42 0" stroke="#a96b67" stroke-width="5" fill="none" stroke-linecap="round"/></g><g transform="translate(470 160)"><rect x="0" y="150" width="330" height="96" rx="20" fill="#eee3e7"/><rect x="35" y="0" width="260" height="170" rx="20" fill="#3c333d"/><rect x="53" y="18" width="224" height="134" rx="12" fill="#fff"/><path d="M85 102c40-37 89-49 158-19" stroke="#d92379" stroke-width="12" fill="none" stroke-linecap="round"/><rect x="318" y="86" width="82" height="94" rx="12" fill="#f0d6df"/><path d="M338 111h42M338 135h30" stroke="#b37b90" stroke-width="8" stroke-linecap="round"/></g><g fill="#d92379"><circle cx="820" cy="110" r="11"/><circle cx="855" cy="145" r="7"/><path d="M842 213c28-34 63-34 91 0-28 34-63 34-91 0Zm28 0c0 14 11 25 25 25s25-11 25-25-11-25-25-25-25 11-25 25Z"/></g></g></svg>